<mxfile host="65bd71144e">
    <diagram id="RWt5LqPUmjzaoKwd2pMQ" name="Page-1">
        <mxGraphModel dx="1356" dy="706" grid="1" gridSize="10" guides="1" tooltips="1" connect="1" arrows="1" fold="1" page="1" pageScale="1" pageWidth="1169" pageHeight="827" math="0" shadow="0">
            <root>
                <mxCell id="0"/>
                <mxCell id="1" parent="0"/>
                <mxCell id="2" value="transport Company" style="shape=umlActor;verticalLabelPosition=bottom;verticalAlign=top;html=1;outlineConnect=0;sketch=0;hachureGap=4;fontFamily=Helvetica;fontSize=20;" vertex="1" parent="1">
                    <mxGeometry x="460" y="270" width="30" height="60" as="geometry"/>
                </mxCell>
                <mxCell id="3" value="route&lt;span style=&quot;color: rgba(0 , 0 , 0 , 0) ; font-family: monospace ; font-size: 0px&quot;&gt;%3CmxGraphModel%3E%3Croot%3E%3CmxCell%20id%3D%220%22%2F%3E%3CmxCell%20id%3D%221%22%20parent%3D%220%22%2F%3E%3CmxCell%20id%3D%222%22%20value%3D%22books%22%20style%3D%22swimlane%3BfontStyle%3D0%3BchildLayout%3DstackLayout%3Bhorizontal%3D1%3BstartSize%3D26%3BfillColor%3Dnone%3BhorizontalStack%3D0%3BresizeParent%3D1%3BresizeParentMax%3D0%3BresizeLast%3D0%3Bcollapsible%3D1%3BmarginBottom%3D0%3BhachureGap%3D4%3BfontFamily%3DHelvetica%3BfontSize%3D20%3B%22%20vertex%3D%221%22%20parent%3D%221%22%3E%3CmxGeometry%20x%3D%22570%22%20y%3D%2290%22%20width%3D%22220%22%20height%3D%22268%22%20as%3D%22geometry%22%2F%3E%3C%2FmxCell%3E%3CmxCell%20id%3D%223%22%20value%3D%22book_id%3A%20int%22%20style%3D%22text%3BstrokeColor%3Dnone%3BfillColor%3Dnone%3Balign%3Dleft%3BverticalAlign%3Dtop%3BspacingLeft%3D4%3BspacingRight%3D4%3Boverflow%3Dhidden%3Brotatable%3D0%3Bpoints%3D%5B%5B0%2C0.5%5D%2C%5B1%2C0.5%5D%5D%3BportConstraint%3Deastwest%3BhachureGap%3D4%3BfontFamily%3DHelvetica%3BfontSize%3D20%3B%22%20vertex%3D%221%22%20parent%3D%222%22%3E%3CmxGeometry%20y%3D%2226%22%20width%3D%22220%22%20height%3D%2234%22%20as%3D%22geometry%22%2F%3E%3C%2FmxCell%3E%3CmxCell%20id%3D%224%22%20value%3D%22title%3A%20varchar%22%20style%3D%22text%3BstrokeColor%3Dnone%3BfillColor%3Dnone%3Balign%3Dleft%3BverticalAlign%3Dtop%3BspacingLeft%3D4%3BspacingRight%3D4%3Boverflow%3Dhidden%3Brotatable%3D0%3Bpoints%3D%5B%5B0%2C0.5%5D%2C%5B1%2C0.5%5D%5D%3BportConstraint%3Deastwest%3BhachureGap%3D4%3BfontFamily%3DHelvetica%3BfontSize%3D20%3B%22%20vertex%3D%221%22%20parent%3D%222%22%3E%3CmxGeometry%20y%3D%2260%22%20width%3D%22220%22%20height%3D%2240%22%20as%3D%22geometry%22%2F%3E%3C%2FmxCell%3E%3CmxCell%20id%3D%225%22%20value%3D%22fk_author_id%3A%20int%22%20style%3D%22text%3BstrokeColor%3Dnone%3BfillColor%3Dnone%3Balign%3Dleft%3BverticalAlign%3Dtop%3BspacingLeft%3D4%3BspacingRight%3D4%3Boverflow%3Dhidden%3Brotatable%3D0%3Bpoints%3D%5B%5B0%2C0.5%5D%2C%5B1%2C0.5%5D%5D%3BportConstraint%3Deastwest%3BhachureGap%3D4%3BfontFamily%3DHelvetica%3BfontSize%3D20%3B%22%20vertex%3D%221%22%20parent%3D%222%22%3E%3CmxGeometry%20y%3D%22100%22%20width%3D%22220%22%20height%3D%2242%22%20as%3D%22geometry%22%2F%3E%3C%2FmxCell%3E%3CmxCell%20id%3D%226%22%20value%3D%22price%3A%20int%22%20style%3D%22text%3BstrokeColor%3Dnone%3BfillColor%3Dnone%3Balign%3Dleft%3BverticalAlign%3Dtop%3BspacingLeft%3D4%3BspacingRight%3D4%3Boverflow%3Dhidden%3Brotatable%3D0%3Bpoints%3D%5B%5B0%2C0.5%5D%2C%5B1%2C0.5%5D%5D%3BportConstraint%3Deastwest%3BhachureGap%3D4%3BfontFamily%3DHelvetica%3BfontSize%3D20%3B%22%20vertex%3D%221%22%20parent%3D%222%22%3E%3CmxGeometry%20y%3D%22142%22%20width%3D%22220%22%20height%3D%2242%22%20as%3D%22geometry%22%2F%3E%3C%2FmxCell%3E%3CmxCell%20id%3D%227%22%20value%3D%22genre%3A%20varchar%22%20style%3D%22text%3BstrokeColor%3Dnone%3BfillColor%3Dnone%3Balign%3Dleft%3BverticalAlign%3Dtop%3BspacingLeft%3D4%3BspacingRight%3D4%3Boverflow%3Dhidden%3Brotatable%3D0%3Bpoints%3D%5B%5B0%2C0.5%5D%2C%5B1%2C0.5%5D%5D%3BportConstraint%3Deastwest%3BhachureGap%3D4%3BfontFamily%3DHelvetica%3BfontSize%3D20%3B%22%20vertex%3D%221%22%20parent%3D%222%22%3E%3CmxGeometry%20y%3D%22184%22%20width%3D%22220%22%20height%3D%2242%22%20as%3D%22geometry%22%2F%3E%3C%2FmxCell%3E%3CmxCell%20id%3D%228%22%20value%3D%22pages%3A%20int%22%20style%3D%22text%3BstrokeColor%3Dnone%3BfillColor%3Dnone%3Balign%3Dleft%3BverticalAlign%3Dtop%3BspacingLeft%3D4%3BspacingRight%3D4%3Boverflow%3Dhidden%3Brotatable%3D0%3Bpoints%3D%5B%5B0%2C0.5%5D%2C%5B1%2C0.5%5D%5D%3BportConstraint%3Deastwest%3BhachureGap%3D4%3BfontFamily%3DHelvetica%3BfontSize%3D20%3B%22%20vertex%3D%221%22%20parent%3D%222%22%3E%3CmxGeometry%20y%3D%22226%22%20width%3D%22220%22%20height%3D%2242%22%20as%3D%22geometry%22%2F%3E%3C%2FmxCell%3E%3C%2Froot%3E%3C%2FmxGraphModel%3E&lt;/span&gt;" style="ellipse;shape=cloud;whiteSpace=wrap;html=1;sketch=0;hachureGap=4;fontFamily=Helvetica;fontSize=20;" vertex="1" parent="1">
                    <mxGeometry x="230" y="150" width="120" height="80" as="geometry"/>
                </mxCell>
                <mxCell id="4" value="busses" style="ellipse;shape=cloud;whiteSpace=wrap;html=1;sketch=0;hachureGap=4;fontFamily=Helvetica;fontSize=20;" vertex="1" parent="1">
                    <mxGeometry x="390" y="90" width="120" height="80" as="geometry"/>
                </mxCell>
                <mxCell id="5" value="bus station" style="ellipse;shape=cloud;whiteSpace=wrap;html=1;sketch=0;hachureGap=4;fontFamily=Helvetica;fontSize=20;" vertex="1" parent="1">
                    <mxGeometry x="550" y="150" width="120" height="80" as="geometry"/>
                </mxCell>
            </root>
        </mxGraphModel>
    </diagram>
    <diagram name="Page-2" id="h1vKu6swznskrQ_jpil1">
        <mxGraphModel dx="2260" dy="1177" grid="1" gridSize="10" guides="1" tooltips="1" connect="1" arrows="1" fold="1" page="1" pageScale="1" pageWidth="1169" pageHeight="827" math="0" shadow="0">
            <root>
                <mxCell id="XVmBOEhS2H0qfYuUdR9H-0"/>
                <mxCell id="XVmBOEhS2H0qfYuUdR9H-1" parent="XVmBOEhS2H0qfYuUdR9H-0"/>
                <mxCell id="XVmBOEhS2H0qfYuUdR9H-48" style="edgeStyle=none;curved=1;rounded=0;sketch=0;hachureGap=4;orthogonalLoop=1;jettySize=auto;html=1;exitX=1;exitY=0.5;exitDx=0;exitDy=0;fontFamily=Helvetica;fontSize=20;endArrow=none;endFill=0;startSize=14;endSize=14;sourcePerimeterSpacing=8;targetPerimeterSpacing=8;" edge="1" parent="XVmBOEhS2H0qfYuUdR9H-1" source="XVmBOEhS2H0qfYuUdR9H-6" target="XVmBOEhS2H0qfYuUdR9H-39">
                    <mxGeometry relative="1" as="geometry"/>
                </mxCell>
                <mxCell id="XVmBOEhS2H0qfYuUdR9H-6" value="Route" style="rounded=1;whiteSpace=wrap;html=1;sketch=0;hachureGap=4;fontFamily=Helvetica;fontSize=20;" vertex="1" parent="XVmBOEhS2H0qfYuUdR9H-1">
                    <mxGeometry x="560" y="180" width="120" height="60" as="geometry"/>
                </mxCell>
                <mxCell id="XVmBOEhS2H0qfYuUdR9H-24" style="edgeStyle=none;curved=1;rounded=0;sketch=0;hachureGap=4;orthogonalLoop=1;jettySize=auto;html=1;exitX=1;exitY=0.5;exitDx=0;exitDy=0;entryX=0;entryY=0.5;entryDx=0;entryDy=0;fontFamily=Helvetica;fontSize=14;endArrow=none;endFill=0;startSize=14;endSize=14;sourcePerimeterSpacing=8;targetPerimeterSpacing=8;" edge="1" parent="XVmBOEhS2H0qfYuUdR9H-1" source="XVmBOEhS2H0qfYuUdR9H-7" target="XVmBOEhS2H0qfYuUdR9H-8">
                    <mxGeometry relative="1" as="geometry"/>
                </mxCell>
                <mxCell id="XVmBOEhS2H0qfYuUdR9H-7" value="bus" style="rounded=1;whiteSpace=wrap;html=1;sketch=0;hachureGap=4;fontFamily=Helvetica;fontSize=20;" vertex="1" parent="XVmBOEhS2H0qfYuUdR9H-1">
                    <mxGeometry x="120" y="180" width="120" height="60" as="geometry"/>
                </mxCell>
                <mxCell id="XVmBOEhS2H0qfYuUdR9H-25" style="edgeStyle=none;curved=1;rounded=0;sketch=0;hachureGap=4;orthogonalLoop=1;jettySize=auto;html=1;exitX=1;exitY=0.5;exitDx=0;exitDy=0;fontFamily=Helvetica;fontSize=14;endArrow=none;endFill=0;startSize=14;endSize=14;sourcePerimeterSpacing=8;targetPerimeterSpacing=8;" edge="1" parent="XVmBOEhS2H0qfYuUdR9H-1" source="XVmBOEhS2H0qfYuUdR9H-8" target="XVmBOEhS2H0qfYuUdR9H-6">
                    <mxGeometry relative="1" as="geometry"/>
                </mxCell>
                <mxCell id="XVmBOEhS2H0qfYuUdR9H-8" value="drives" style="rhombus;whiteSpace=wrap;html=1;sketch=0;hachureGap=4;fontFamily=Helvetica;fontSize=20;" vertex="1" parent="XVmBOEhS2H0qfYuUdR9H-1">
                    <mxGeometry x="320" y="170" width="80" height="80" as="geometry"/>
                </mxCell>
                <mxCell id="XVmBOEhS2H0qfYuUdR9H-21" style="edgeStyle=none;curved=1;rounded=0;sketch=0;hachureGap=4;orthogonalLoop=1;jettySize=auto;html=1;exitX=0.5;exitY=1;exitDx=0;exitDy=0;fontFamily=Helvetica;fontSize=14;endArrow=none;endFill=0;startSize=14;endSize=14;sourcePerimeterSpacing=8;targetPerimeterSpacing=8;" edge="1" parent="XVmBOEhS2H0qfYuUdR9H-1" source="XVmBOEhS2H0qfYuUdR9H-9" target="XVmBOEhS2H0qfYuUdR9H-7">
                    <mxGeometry relative="1" as="geometry">
                        <mxPoint x="124.1297024028122" y="148.2594048056244" as="targetPoint"/>
                    </mxGeometry>
                </mxCell>
                <mxCell id="XVmBOEhS2H0qfYuUdR9H-9" value="&lt;font style=&quot;font-size: 14px&quot;&gt;licence_plate&lt;/font&gt;" style="ellipse;whiteSpace=wrap;html=1;sketch=0;hachureGap=4;fontFamily=Helvetica;fontSize=20;" vertex="1" parent="XVmBOEhS2H0qfYuUdR9H-1">
                    <mxGeometry x="40" y="30" width="100" height="50" as="geometry"/>
                </mxCell>
                <mxCell id="XVmBOEhS2H0qfYuUdR9H-22" style="edgeStyle=none;curved=1;rounded=0;sketch=0;hachureGap=4;orthogonalLoop=1;jettySize=auto;html=1;exitX=0.5;exitY=1;exitDx=0;exitDy=0;fontFamily=Helvetica;fontSize=14;endArrow=none;endFill=0;startSize=14;endSize=14;sourcePerimeterSpacing=8;targetPerimeterSpacing=8;" edge="1" parent="XVmBOEhS2H0qfYuUdR9H-1" source="XVmBOEhS2H0qfYuUdR9H-10" target="XVmBOEhS2H0qfYuUdR9H-7">
                    <mxGeometry relative="1" as="geometry"/>
                </mxCell>
                <mxCell id="XVmBOEhS2H0qfYuUdR9H-10" value="&lt;span style=&quot;font-size: 14px&quot;&gt;driver&lt;/span&gt;" style="ellipse;whiteSpace=wrap;html=1;sketch=0;hachureGap=4;fontFamily=Helvetica;fontSize=20;" vertex="1" parent="XVmBOEhS2H0qfYuUdR9H-1">
                    <mxGeometry x="140" y="80" width="80" height="30" as="geometry"/>
                </mxCell>
                <mxCell id="XVmBOEhS2H0qfYuUdR9H-19" style="edgeStyle=none;curved=1;rounded=0;sketch=0;hachureGap=4;orthogonalLoop=1;jettySize=auto;html=1;exitX=1;exitY=1;exitDx=0;exitDy=0;entryX=0.083;entryY=0;entryDx=0;entryDy=0;fontFamily=Helvetica;fontSize=14;endArrow=none;startSize=14;endSize=14;sourcePerimeterSpacing=8;targetPerimeterSpacing=8;endFill=0;entryPerimeter=0;" edge="1" parent="XVmBOEhS2H0qfYuUdR9H-1" source="XVmBOEhS2H0qfYuUdR9H-11" target="XVmBOEhS2H0qfYuUdR9H-7">
                    <mxGeometry relative="1" as="geometry"/>
                </mxCell>
                <mxCell id="XVmBOEhS2H0qfYuUdR9H-11" value="&lt;font style=&quot;font-size: 14px&quot;&gt;model&lt;/font&gt;" style="ellipse;whiteSpace=wrap;html=1;sketch=0;hachureGap=4;fontFamily=Helvetica;fontSize=20;" vertex="1" parent="XVmBOEhS2H0qfYuUdR9H-1">
                    <mxGeometry x="30" y="110" width="70" height="30" as="geometry"/>
                </mxCell>
                <mxCell id="XVmBOEhS2H0qfYuUdR9H-23" style="edgeStyle=none;curved=1;rounded=0;sketch=0;hachureGap=4;orthogonalLoop=1;jettySize=auto;html=1;exitX=0.5;exitY=1;exitDx=0;exitDy=0;fontFamily=Helvetica;fontSize=14;endArrow=none;endFill=0;startSize=14;endSize=14;sourcePerimeterSpacing=8;targetPerimeterSpacing=8;" edge="1" parent="XVmBOEhS2H0qfYuUdR9H-1" source="XVmBOEhS2H0qfYuUdR9H-12" target="XVmBOEhS2H0qfYuUdR9H-7">
                    <mxGeometry relative="1" as="geometry"/>
                </mxCell>
                <mxCell id="XVmBOEhS2H0qfYuUdR9H-12" value="&lt;font style=&quot;font-size: 14px&quot;&gt;capacity&lt;/font&gt;" style="ellipse;whiteSpace=wrap;html=1;sketch=0;hachureGap=4;fontFamily=Helvetica;fontSize=20;" vertex="1" parent="XVmBOEhS2H0qfYuUdR9H-1">
                    <mxGeometry x="220" y="30" width="80" height="40" as="geometry"/>
                </mxCell>
                <mxCell id="XVmBOEhS2H0qfYuUdR9H-30" style="edgeStyle=none;curved=1;rounded=0;sketch=0;hachureGap=4;orthogonalLoop=1;jettySize=auto;html=1;exitX=1;exitY=1;exitDx=0;exitDy=0;entryX=0.167;entryY=0;entryDx=0;entryDy=0;entryPerimeter=0;fontFamily=Helvetica;fontSize=14;endArrow=none;endFill=0;startSize=14;endSize=14;sourcePerimeterSpacing=8;targetPerimeterSpacing=8;" edge="1" parent="XVmBOEhS2H0qfYuUdR9H-1" source="XVmBOEhS2H0qfYuUdR9H-26" target="XVmBOEhS2H0qfYuUdR9H-6">
                    <mxGeometry relative="1" as="geometry"/>
                </mxCell>
                <mxCell id="XVmBOEhS2H0qfYuUdR9H-26" value="route_id" style="ellipse;whiteSpace=wrap;html=1;sketch=0;hachureGap=4;fontFamily=Helvetica;fontSize=14;" vertex="1" parent="XVmBOEhS2H0qfYuUdR9H-1">
                    <mxGeometry x="430" y="10" width="100" height="50" as="geometry"/>
                </mxCell>
                <mxCell id="XVmBOEhS2H0qfYuUdR9H-33" style="edgeStyle=none;curved=1;rounded=0;sketch=0;hachureGap=4;orthogonalLoop=1;jettySize=auto;html=1;exitX=0.5;exitY=1;exitDx=0;exitDy=0;entryX=1;entryY=0;entryDx=0;entryDy=0;fontFamily=Helvetica;fontSize=14;endArrow=none;endFill=0;startSize=14;endSize=14;sourcePerimeterSpacing=8;targetPerimeterSpacing=8;" edge="1" parent="XVmBOEhS2H0qfYuUdR9H-1" source="XVmBOEhS2H0qfYuUdR9H-27" target="XVmBOEhS2H0qfYuUdR9H-6">
                    <mxGeometry relative="1" as="geometry"/>
                </mxCell>
                <mxCell id="XVmBOEhS2H0qfYuUdR9H-27" value="total_distance" style="ellipse;whiteSpace=wrap;html=1;sketch=0;hachureGap=4;fontFamily=Helvetica;fontSize=14;" vertex="1" parent="XVmBOEhS2H0qfYuUdR9H-1">
                    <mxGeometry x="660" y="30" width="100" height="50" as="geometry"/>
                </mxCell>
                <mxCell id="XVmBOEhS2H0qfYuUdR9H-31" style="edgeStyle=none;curved=1;rounded=0;sketch=0;hachureGap=4;orthogonalLoop=1;jettySize=auto;html=1;exitX=0.5;exitY=1;exitDx=0;exitDy=0;fontFamily=Helvetica;fontSize=14;endArrow=none;endFill=0;startSize=14;endSize=14;sourcePerimeterSpacing=8;targetPerimeterSpacing=8;" edge="1" parent="XVmBOEhS2H0qfYuUdR9H-1" source="XVmBOEhS2H0qfYuUdR9H-28" target="XVmBOEhS2H0qfYuUdR9H-6">
                    <mxGeometry relative="1" as="geometry"/>
                </mxCell>
                <mxCell id="XVmBOEhS2H0qfYuUdR9H-28" value="destination" style="ellipse;whiteSpace=wrap;html=1;sketch=0;hachureGap=4;fontFamily=Helvetica;fontSize=14;" vertex="1" parent="XVmBOEhS2H0qfYuUdR9H-1">
                    <mxGeometry x="535" y="30" width="100" height="50" as="geometry"/>
                </mxCell>
                <mxCell id="XVmBOEhS2H0qfYuUdR9H-32" style="edgeStyle=none;curved=1;rounded=0;sketch=0;hachureGap=4;orthogonalLoop=1;jettySize=auto;html=1;exitX=0.5;exitY=1;exitDx=0;exitDy=0;fontFamily=Helvetica;fontSize=14;endArrow=none;endFill=0;startSize=14;endSize=14;sourcePerimeterSpacing=8;targetPerimeterSpacing=8;" edge="1" parent="XVmBOEhS2H0qfYuUdR9H-1" source="XVmBOEhS2H0qfYuUdR9H-29" target="XVmBOEhS2H0qfYuUdR9H-6">
                    <mxGeometry relative="1" as="geometry"/>
                </mxCell>
                <mxCell id="XVmBOEhS2H0qfYuUdR9H-29" value="source" style="ellipse;whiteSpace=wrap;html=1;sketch=0;hachureGap=4;fontFamily=Helvetica;fontSize=14;" vertex="1" parent="XVmBOEhS2H0qfYuUdR9H-1">
                    <mxGeometry x="610" y="90" width="100" height="50" as="geometry"/>
                </mxCell>
                <mxCell id="XVmBOEhS2H0qfYuUdR9H-47" style="edgeStyle=none;curved=1;rounded=0;sketch=0;hachureGap=4;orthogonalLoop=1;jettySize=auto;html=1;exitX=1;exitY=0.5;exitDx=0;exitDy=0;entryX=0;entryY=0.5;entryDx=0;entryDy=0;fontFamily=Helvetica;fontSize=20;endArrow=none;endFill=0;startSize=14;endSize=14;sourcePerimeterSpacing=8;targetPerimeterSpacing=8;" edge="1" parent="XVmBOEhS2H0qfYuUdR9H-1" source="XVmBOEhS2H0qfYuUdR9H-39" target="XVmBOEhS2H0qfYuUdR9H-41">
                    <mxGeometry relative="1" as="geometry"/>
                </mxCell>
                <mxCell id="XVmBOEhS2H0qfYuUdR9H-39" value="contains" style="rhombus;whiteSpace=wrap;html=1;sketch=0;hachureGap=4;fontFamily=Helvetica;fontSize=20;" vertex="1" parent="XVmBOEhS2H0qfYuUdR9H-1">
                    <mxGeometry x="780" y="170" width="120" height="90" as="geometry"/>
                </mxCell>
                <mxCell id="XVmBOEhS2H0qfYuUdR9H-41" value="bus station" style="rounded=1;whiteSpace=wrap;html=1;sketch=0;hachureGap=4;fontFamily=Helvetica;fontSize=20;" vertex="1" parent="XVmBOEhS2H0qfYuUdR9H-1">
                    <mxGeometry x="1049" y="185" width="120" height="60" as="geometry"/>
                </mxCell>
                <mxCell id="XVmBOEhS2H0qfYuUdR9H-46" style="edgeStyle=none;curved=1;rounded=0;sketch=0;hachureGap=4;orthogonalLoop=1;jettySize=auto;html=1;exitX=1;exitY=1;exitDx=0;exitDy=0;entryX=0;entryY=0.25;entryDx=0;entryDy=0;fontFamily=Helvetica;fontSize=20;endArrow=none;endFill=0;startSize=14;endSize=14;sourcePerimeterSpacing=8;targetPerimeterSpacing=8;" edge="1" parent="XVmBOEhS2H0qfYuUdR9H-1" source="XVmBOEhS2H0qfYuUdR9H-45" target="XVmBOEhS2H0qfYuUdR9H-6">
                    <mxGeometry relative="1" as="geometry"/>
                </mxCell>
                <mxCell id="XVmBOEhS2H0qfYuUdR9H-45" value="fk_licence_plate" style="ellipse;whiteSpace=wrap;html=1;sketch=0;hachureGap=4;fontFamily=Helvetica;fontSize=14;" vertex="1" parent="XVmBOEhS2H0qfYuUdR9H-1">
                    <mxGeometry x="400" y="90" width="120" height="50" as="geometry"/>
                </mxCell>
                <mxCell id="XVmBOEhS2H0qfYuUdR9H-52" style="edgeStyle=none;curved=1;rounded=0;sketch=0;hachureGap=4;orthogonalLoop=1;jettySize=auto;html=1;exitX=0.5;exitY=1;exitDx=0;exitDy=0;entryX=0;entryY=0;entryDx=0;entryDy=0;fontFamily=Helvetica;fontSize=20;endArrow=none;endFill=0;startSize=14;endSize=14;sourcePerimeterSpacing=8;targetPerimeterSpacing=8;" edge="1" parent="XVmBOEhS2H0qfYuUdR9H-1" source="XVmBOEhS2H0qfYuUdR9H-49" target="XVmBOEhS2H0qfYuUdR9H-41">
                    <mxGeometry relative="1" as="geometry"/>
                </mxCell>
                <mxCell id="XVmBOEhS2H0qfYuUdR9H-49" value="city_name" style="ellipse;whiteSpace=wrap;html=1;sketch=0;hachureGap=4;fontFamily=Helvetica;fontSize=14;" vertex="1" parent="XVmBOEhS2H0qfYuUdR9H-1">
                    <mxGeometry x="990" y="10" width="100" height="50" as="geometry"/>
                </mxCell>
                <mxCell id="XVmBOEhS2H0qfYuUdR9H-53" style="edgeStyle=none;curved=1;rounded=0;sketch=0;hachureGap=4;orthogonalLoop=1;jettySize=auto;html=1;exitX=0.5;exitY=1;exitDx=0;exitDy=0;entryX=0.5;entryY=0;entryDx=0;entryDy=0;fontFamily=Helvetica;fontSize=20;endArrow=none;endFill=0;startSize=14;endSize=14;sourcePerimeterSpacing=8;targetPerimeterSpacing=8;" edge="1" parent="XVmBOEhS2H0qfYuUdR9H-1" source="XVmBOEhS2H0qfYuUdR9H-50" target="XVmBOEhS2H0qfYuUdR9H-41">
                    <mxGeometry relative="1" as="geometry"/>
                </mxCell>
                <mxCell id="XVmBOEhS2H0qfYuUdR9H-50" value="adress" style="ellipse;whiteSpace=wrap;html=1;sketch=0;hachureGap=4;fontFamily=Helvetica;fontSize=14;" vertex="1" parent="XVmBOEhS2H0qfYuUdR9H-1">
                    <mxGeometry x="1069" y="50" width="100" height="50" as="geometry"/>
                </mxCell>
                <mxCell id="XVmBOEhS2H0qfYuUdR9H-54" style="edgeStyle=none;curved=1;rounded=0;sketch=0;hachureGap=4;orthogonalLoop=1;jettySize=auto;html=1;exitX=0;exitY=1;exitDx=0;exitDy=0;entryX=0.75;entryY=0;entryDx=0;entryDy=0;fontFamily=Helvetica;fontSize=20;endArrow=none;endFill=0;startSize=14;endSize=14;sourcePerimeterSpacing=8;targetPerimeterSpacing=8;" edge="1" parent="XVmBOEhS2H0qfYuUdR9H-1" source="XVmBOEhS2H0qfYuUdR9H-51" target="XVmBOEhS2H0qfYuUdR9H-41">
                    <mxGeometry relative="1" as="geometry"/>
                </mxCell>
                <mxCell id="XVmBOEhS2H0qfYuUdR9H-51" value="telephone_number" style="ellipse;whiteSpace=wrap;html=1;sketch=0;hachureGap=4;fontFamily=Helvetica;fontSize=14;" vertex="1" parent="XVmBOEhS2H0qfYuUdR9H-1">
                    <mxGeometry x="1180" y="100" width="140" height="60" as="geometry"/>
                </mxCell>
                <mxCell id="XVmBOEhS2H0qfYuUdR9H-56" style="edgeStyle=none;curved=1;rounded=0;sketch=0;hachureGap=4;orthogonalLoop=1;jettySize=auto;html=1;exitX=1;exitY=1;exitDx=0;exitDy=0;entryX=0;entryY=0.5;entryDx=0;entryDy=0;fontFamily=Helvetica;fontSize=20;endArrow=none;endFill=0;startSize=14;endSize=14;sourcePerimeterSpacing=8;targetPerimeterSpacing=8;" edge="1" parent="XVmBOEhS2H0qfYuUdR9H-1" source="XVmBOEhS2H0qfYuUdR9H-55" target="XVmBOEhS2H0qfYuUdR9H-41">
                    <mxGeometry relative="1" as="geometry"/>
                </mxCell>
                <mxCell id="XVmBOEhS2H0qfYuUdR9H-55" value="order_num" style="ellipse;whiteSpace=wrap;html=1;sketch=0;hachureGap=4;fontFamily=Helvetica;fontSize=14;" vertex="1" parent="XVmBOEhS2H0qfYuUdR9H-1">
                    <mxGeometry x="920" y="70" width="100" height="50" as="geometry"/>
                </mxCell>
                <mxCell id="XVmBOEhS2H0qfYuUdR9H-58" style="edgeStyle=none;curved=1;rounded=0;sketch=0;hachureGap=4;orthogonalLoop=1;jettySize=auto;html=1;exitX=0;exitY=0.5;exitDx=0;exitDy=0;fontFamily=Helvetica;fontSize=20;endArrow=none;endFill=0;startSize=14;endSize=14;sourcePerimeterSpacing=8;targetPerimeterSpacing=8;" edge="1" parent="XVmBOEhS2H0qfYuUdR9H-1" source="XVmBOEhS2H0qfYuUdR9H-57" target="XVmBOEhS2H0qfYuUdR9H-41">
                    <mxGeometry relative="1" as="geometry"/>
                </mxCell>
                <mxCell id="XVmBOEhS2H0qfYuUdR9H-57" value="fk_route_id" style="ellipse;whiteSpace=wrap;html=1;sketch=0;hachureGap=4;fontFamily=Helvetica;fontSize=14;" vertex="1" parent="XVmBOEhS2H0qfYuUdR9H-1">
                    <mxGeometry x="1220" y="200" width="100" height="50" as="geometry"/>
                </mxCell>
            </root>
        </mxGraphModel>
    </diagram>
    <diagram name="Page-3" id="TcU0PjFRBuCy4ExX8R8g">
        <mxGraphModel dx="1808" dy="941" grid="1" gridSize="10" guides="1" tooltips="1" connect="1" arrows="1" fold="1" page="1" pageScale="1" pageWidth="1169" pageHeight="827" math="0" shadow="0">
            <root>
                <mxCell id="zprt_X3QVgfc1uTC-wql-0"/>
                <mxCell id="zprt_X3QVgfc1uTC-wql-1" parent="zprt_X3QVgfc1uTC-wql-0"/>
                <mxCell id="zprt_X3QVgfc1uTC-wql-39" value="bus" style="swimlane;fontStyle=0;childLayout=stackLayout;horizontal=1;startSize=26;fillColor=none;horizontalStack=0;resizeParent=1;resizeParentMax=0;resizeLast=0;collapsible=1;marginBottom=0;sketch=0;hachureGap=4;fontFamily=Helvetica;fontSize=20;" vertex="1" parent="zprt_X3QVgfc1uTC-wql-1">
                    <mxGeometry x="10" y="90" width="210" height="130" as="geometry"/>
                </mxCell>
                <mxCell id="zprt_X3QVgfc1uTC-wql-40" value="licence_plate: int" style="text;strokeColor=none;fillColor=none;align=left;verticalAlign=top;spacingLeft=4;spacingRight=4;overflow=hidden;rotatable=0;points=[[0,0.5],[1,0.5]];portConstraint=eastwest;sketch=0;hachureGap=4;fontFamily=Helvetica;fontSize=20;" vertex="1" parent="zprt_X3QVgfc1uTC-wql-39">
                    <mxGeometry y="26" width="210" height="26" as="geometry"/>
                </mxCell>
                <mxCell id="zprt_X3QVgfc1uTC-wql-41" value="model: varchar" style="text;strokeColor=none;fillColor=none;align=left;verticalAlign=top;spacingLeft=4;spacingRight=4;overflow=hidden;rotatable=0;points=[[0,0.5],[1,0.5]];portConstraint=eastwest;sketch=0;hachureGap=4;fontFamily=Helvetica;fontSize=20;" vertex="1" parent="zprt_X3QVgfc1uTC-wql-39">
                    <mxGeometry y="52" width="210" height="26" as="geometry"/>
                </mxCell>
                <mxCell id="dhkFOnGqzD3RSUUMvM04-0" value="driver: varchar" style="text;strokeColor=none;fillColor=none;align=left;verticalAlign=top;spacingLeft=4;spacingRight=4;overflow=hidden;rotatable=0;points=[[0,0.5],[1,0.5]];portConstraint=eastwest;sketch=0;hachureGap=4;fontFamily=Helvetica;fontSize=20;" vertex="1" parent="zprt_X3QVgfc1uTC-wql-39">
                    <mxGeometry y="78" width="210" height="26" as="geometry"/>
                </mxCell>
                <mxCell id="zprt_X3QVgfc1uTC-wql-42" value="capacity: int" style="text;strokeColor=none;fillColor=none;align=left;verticalAlign=top;spacingLeft=4;spacingRight=4;overflow=hidden;rotatable=0;points=[[0,0.5],[1,0.5]];portConstraint=eastwest;sketch=0;hachureGap=4;fontFamily=Helvetica;fontSize=20;" vertex="1" parent="zprt_X3QVgfc1uTC-wql-39">
                    <mxGeometry y="104" width="210" height="26" as="geometry"/>
                </mxCell>
                <mxCell id="dhkFOnGqzD3RSUUMvM04-1" value="Route" style="swimlane;fontStyle=0;childLayout=stackLayout;horizontal=1;startSize=26;fillColor=none;horizontalStack=0;resizeParent=1;resizeParentMax=0;resizeLast=0;collapsible=1;marginBottom=0;sketch=0;hachureGap=4;fontFamily=Helvetica;fontSize=20;" vertex="1" parent="zprt_X3QVgfc1uTC-wql-1">
                    <mxGeometry x="300" y="80" width="210" height="182" as="geometry"/>
                </mxCell>
                <mxCell id="dhkFOnGqzD3RSUUMvM04-3" value="route_id: int" style="text;strokeColor=none;fillColor=none;align=left;verticalAlign=top;spacingLeft=4;spacingRight=4;overflow=hidden;rotatable=0;points=[[0,0.5],[1,0.5]];portConstraint=eastwest;sketch=0;hachureGap=4;fontFamily=Helvetica;fontSize=20;" vertex="1" parent="dhkFOnGqzD3RSUUMvM04-1">
                    <mxGeometry y="26" width="210" height="26" as="geometry"/>
                </mxCell>
                <mxCell id="kwOx7MXwjIY7sfcVSjZh-4" value="route_id: int" style="text;strokeColor=none;fillColor=none;align=left;verticalAlign=top;spacingLeft=4;spacingRight=4;overflow=hidden;rotatable=0;points=[[0,0.5],[1,0.5]];portConstraint=eastwest;sketch=0;hachureGap=4;fontFamily=Helvetica;fontSize=20;" vertex="1" parent="dhkFOnGqzD3RSUUMvM04-1">
                    <mxGeometry y="52" width="210" height="26" as="geometry"/>
                </mxCell>
                <mxCell id="IdVmn0D3c_LTP4t7VOiB-0" value="destination: varchar" style="text;strokeColor=none;fillColor=none;align=left;verticalAlign=top;spacingLeft=4;spacingRight=4;overflow=hidden;rotatable=0;points=[[0,0.5],[1,0.5]];portConstraint=eastwest;sketch=0;hachureGap=4;fontFamily=Helvetica;fontSize=20;" vertex="1" parent="dhkFOnGqzD3RSUUMvM04-1">
                    <mxGeometry y="78" width="210" height="26" as="geometry"/>
                </mxCell>
                <mxCell id="dhkFOnGqzD3RSUUMvM04-4" value="total_distance: int" style="text;strokeColor=none;fillColor=none;align=left;verticalAlign=top;spacingLeft=4;spacingRight=4;overflow=hidden;rotatable=0;points=[[0,0.5],[1,0.5]];portConstraint=eastwest;sketch=0;hachureGap=4;fontFamily=Helvetica;fontSize=20;" vertex="1" parent="dhkFOnGqzD3RSUUMvM04-1">
                    <mxGeometry y="104" width="210" height="26" as="geometry"/>
                </mxCell>
                <mxCell id="N8lcqYQPdtCxbbXnnfjt-0" value="source: varchar" style="text;strokeColor=none;fillColor=none;align=left;verticalAlign=top;spacingLeft=4;spacingRight=4;overflow=hidden;rotatable=0;points=[[0,0.5],[1,0.5]];portConstraint=eastwest;sketch=0;hachureGap=4;fontFamily=Helvetica;fontSize=20;" vertex="1" parent="dhkFOnGqzD3RSUUMvM04-1">
                    <mxGeometry y="130" width="210" height="26" as="geometry"/>
                </mxCell>
                <mxCell id="IdVmn0D3c_LTP4t7VOiB-1" value="fk_licence_plate: int" style="text;strokeColor=none;fillColor=none;align=left;verticalAlign=top;spacingLeft=4;spacingRight=4;overflow=hidden;rotatable=0;points=[[0,0.5],[1,0.5]];portConstraint=eastwest;sketch=0;hachureGap=4;fontFamily=Helvetica;fontSize=20;" vertex="1" parent="dhkFOnGqzD3RSUUMvM04-1">
                    <mxGeometry y="156" width="210" height="26" as="geometry"/>
                </mxCell>
                <mxCell id="N8lcqYQPdtCxbbXnnfjt-1" style="edgeStyle=orthogonalEdgeStyle;rounded=0;sketch=0;hachureGap=4;orthogonalLoop=1;jettySize=auto;html=1;exitX=1;exitY=0.5;exitDx=0;exitDy=0;entryX=0;entryY=0.5;entryDx=0;entryDy=0;fontFamily=Helvetica;fontSize=20;endArrow=ERone;endFill=0;startSize=14;endSize=14;sourcePerimeterSpacing=8;targetPerimeterSpacing=8;startArrow=ERmany;startFill=0;" edge="1" parent="zprt_X3QVgfc1uTC-wql-1" source="zprt_X3QVgfc1uTC-wql-40" target="IdVmn0D3c_LTP4t7VOiB-1">
                    <mxGeometry relative="1" as="geometry"/>
                </mxCell>
                <mxCell id="N8lcqYQPdtCxbbXnnfjt-2" value="bus station" style="swimlane;fontStyle=0;childLayout=stackLayout;horizontal=1;startSize=26;fillColor=none;horizontalStack=0;resizeParent=1;resizeParentMax=0;resizeLast=0;collapsible=1;marginBottom=0;sketch=0;hachureGap=4;fontFamily=Helvetica;fontSize=20;" vertex="1" parent="zprt_X3QVgfc1uTC-wql-1">
                    <mxGeometry x="730" y="80" width="210" height="156" as="geometry"/>
                </mxCell>
                <mxCell id="N8lcqYQPdtCxbbXnnfjt-3" value="city_name: varchar" style="text;strokeColor=none;fillColor=none;align=left;verticalAlign=top;spacingLeft=4;spacingRight=4;overflow=hidden;rotatable=0;points=[[0,0.5],[1,0.5]];portConstraint=eastwest;sketch=0;hachureGap=4;fontFamily=Helvetica;fontSize=20;" vertex="1" parent="N8lcqYQPdtCxbbXnnfjt-2">
                    <mxGeometry y="26" width="210" height="26" as="geometry"/>
                </mxCell>
                <mxCell id="N8lcqYQPdtCxbbXnnfjt-5" value="adress: varchar" style="text;strokeColor=none;fillColor=none;align=left;verticalAlign=top;spacingLeft=4;spacingRight=4;overflow=hidden;rotatable=0;points=[[0,0.5],[1,0.5]];portConstraint=eastwest;sketch=0;hachureGap=4;fontFamily=Helvetica;fontSize=20;" vertex="1" parent="N8lcqYQPdtCxbbXnnfjt-2">
                    <mxGeometry y="52" width="210" height="26" as="geometry"/>
                </mxCell>
                <mxCell id="kwOx7MXwjIY7sfcVSjZh-1" value="telephone_number: int" style="text;strokeColor=none;fillColor=none;align=left;verticalAlign=top;spacingLeft=4;spacingRight=4;overflow=hidden;rotatable=0;points=[[0,0.5],[1,0.5]];portConstraint=eastwest;sketch=0;hachureGap=4;fontFamily=Helvetica;fontSize=20;" vertex="1" parent="N8lcqYQPdtCxbbXnnfjt-2">
                    <mxGeometry y="78" width="210" height="26" as="geometry"/>
                </mxCell>
                <mxCell id="kwOx7MXwjIY7sfcVSjZh-0" value="order_num: int" style="text;strokeColor=none;fillColor=none;align=left;verticalAlign=top;spacingLeft=4;spacingRight=4;overflow=hidden;rotatable=0;points=[[0,0.5],[1,0.5]];portConstraint=eastwest;sketch=0;hachureGap=4;fontFamily=Helvetica;fontSize=20;" vertex="1" parent="N8lcqYQPdtCxbbXnnfjt-2">
                    <mxGeometry y="104" width="210" height="26" as="geometry"/>
                </mxCell>
                <mxCell id="N8lcqYQPdtCxbbXnnfjt-7" value="fk_route_id: int" style="text;strokeColor=none;fillColor=none;align=left;verticalAlign=top;spacingLeft=4;spacingRight=4;overflow=hidden;rotatable=0;points=[[0,0.5],[1,0.5]];portConstraint=eastwest;sketch=0;hachureGap=4;fontFamily=Helvetica;fontSize=20;" vertex="1" parent="N8lcqYQPdtCxbbXnnfjt-2">
                    <mxGeometry y="130" width="210" height="26" as="geometry"/>
                </mxCell>
                <mxCell id="kwOx7MXwjIY7sfcVSjZh-3" style="edgeStyle=orthogonalEdgeStyle;rounded=0;sketch=0;hachureGap=4;orthogonalLoop=1;jettySize=auto;html=1;exitX=1;exitY=0.5;exitDx=0;exitDy=0;fontFamily=Helvetica;fontSize=20;startArrow=ERone;startFill=0;endArrow=ERmany;endFill=0;startSize=14;endSize=14;sourcePerimeterSpacing=8;targetPerimeterSpacing=8;entryX=0;entryY=0.5;entryDx=0;entryDy=0;" edge="1" parent="zprt_X3QVgfc1uTC-wql-1" source="dhkFOnGqzD3RSUUMvM04-3" target="N8lcqYQPdtCxbbXnnfjt-7">
                    <mxGeometry relative="1" as="geometry">
                        <mxPoint x="607" y="240.0588235294117" as="targetPoint"/>
                    </mxGeometry>
                </mxCell>
            </root>
        </mxGraphModel>
    </diagram>
    <diagram name="Page-4" id="B2YWdW_OJW1k7IwXzZgl">
        <mxGraphModel dx="1695" dy="883" grid="1" gridSize="10" guides="1" tooltips="1" connect="1" arrows="1" fold="1" page="1" pageScale="1" pageWidth="1169" pageHeight="827" math="0" shadow="0">
            <root>
                <mxCell id="t3qOj-esfIgr-Tjjv3id-0"/>
                <mxCell id="t3qOj-esfIgr-Tjjv3id-1" parent="t3qOj-esfIgr-Tjjv3id-0"/>
                <mxCell id="t3qOj-esfIgr-Tjjv3id-2" value="bus" style="swimlane;fontStyle=0;childLayout=stackLayout;horizontal=1;startSize=26;fillColor=none;horizontalStack=0;resizeParent=1;resizeParentMax=0;resizeLast=0;collapsible=1;marginBottom=0;sketch=0;hachureGap=4;fontFamily=Helvetica;fontSize=20;" vertex="1" parent="t3qOj-esfIgr-Tjjv3id-1">
                    <mxGeometry x="10" y="90" width="210" height="130" as="geometry"/>
                </mxCell>
                <mxCell id="t3qOj-esfIgr-Tjjv3id-3" value="licence_plate: int" style="text;strokeColor=none;fillColor=none;align=left;verticalAlign=top;spacingLeft=4;spacingRight=4;overflow=hidden;rotatable=0;points=[[0,0.5],[1,0.5]];portConstraint=eastwest;sketch=0;hachureGap=4;fontFamily=Helvetica;fontSize=20;" vertex="1" parent="t3qOj-esfIgr-Tjjv3id-2">
                    <mxGeometry y="26" width="210" height="26" as="geometry"/>
                </mxCell>
                <mxCell id="t3qOj-esfIgr-Tjjv3id-4" value="model: varchar" style="text;strokeColor=none;fillColor=none;align=left;verticalAlign=top;spacingLeft=4;spacingRight=4;overflow=hidden;rotatable=0;points=[[0,0.5],[1,0.5]];portConstraint=eastwest;sketch=0;hachureGap=4;fontFamily=Helvetica;fontSize=20;" vertex="1" parent="t3qOj-esfIgr-Tjjv3id-2">
                    <mxGeometry y="52" width="210" height="26" as="geometry"/>
                </mxCell>
                <mxCell id="t3qOj-esfIgr-Tjjv3id-5" value="driver: varchar" style="text;strokeColor=none;fillColor=none;align=left;verticalAlign=top;spacingLeft=4;spacingRight=4;overflow=hidden;rotatable=0;points=[[0,0.5],[1,0.5]];portConstraint=eastwest;sketch=0;hachureGap=4;fontFamily=Helvetica;fontSize=20;" vertex="1" parent="t3qOj-esfIgr-Tjjv3id-2">
                    <mxGeometry y="78" width="210" height="26" as="geometry"/>
                </mxCell>
                <mxCell id="t3qOj-esfIgr-Tjjv3id-6" value="capacity: int" style="text;strokeColor=none;fillColor=none;align=left;verticalAlign=top;spacingLeft=4;spacingRight=4;overflow=hidden;rotatable=0;points=[[0,0.5],[1,0.5]];portConstraint=eastwest;sketch=0;hachureGap=4;fontFamily=Helvetica;fontSize=20;" vertex="1" parent="t3qOj-esfIgr-Tjjv3id-2">
                    <mxGeometry y="104" width="210" height="26" as="geometry"/>
                </mxCell>
                <mxCell id="t3qOj-esfIgr-Tjjv3id-7" value="Route" style="swimlane;fontStyle=0;childLayout=stackLayout;horizontal=1;startSize=26;fillColor=none;horizontalStack=0;resizeParent=1;resizeParentMax=0;resizeLast=0;collapsible=1;marginBottom=0;sketch=0;hachureGap=4;fontFamily=Helvetica;fontSize=20;" vertex="1" parent="t3qOj-esfIgr-Tjjv3id-1">
                    <mxGeometry x="340" y="70" width="210" height="182" as="geometry"/>
                </mxCell>
                <mxCell id="t3qOj-esfIgr-Tjjv3id-8" value="route_id: int" style="text;strokeColor=none;fillColor=none;align=left;verticalAlign=top;spacingLeft=4;spacingRight=4;overflow=hidden;rotatable=0;points=[[0,0.5],[1,0.5]];portConstraint=eastwest;sketch=0;hachureGap=4;fontFamily=Helvetica;fontSize=20;" vertex="1" parent="t3qOj-esfIgr-Tjjv3id-7">
                    <mxGeometry y="26" width="210" height="26" as="geometry"/>
                </mxCell>
                <mxCell id="t3qOj-esfIgr-Tjjv3id-9" value="route_id: int" style="text;strokeColor=none;fillColor=none;align=left;verticalAlign=top;spacingLeft=4;spacingRight=4;overflow=hidden;rotatable=0;points=[[0,0.5],[1,0.5]];portConstraint=eastwest;sketch=0;hachureGap=4;fontFamily=Helvetica;fontSize=20;" vertex="1" parent="t3qOj-esfIgr-Tjjv3id-7">
                    <mxGeometry y="52" width="210" height="26" as="geometry"/>
                </mxCell>
                <mxCell id="t3qOj-esfIgr-Tjjv3id-10" value="destination: varchar" style="text;strokeColor=none;fillColor=none;align=left;verticalAlign=top;spacingLeft=4;spacingRight=4;overflow=hidden;rotatable=0;points=[[0,0.5],[1,0.5]];portConstraint=eastwest;sketch=0;hachureGap=4;fontFamily=Helvetica;fontSize=20;" vertex="1" parent="t3qOj-esfIgr-Tjjv3id-7">
                    <mxGeometry y="78" width="210" height="26" as="geometry"/>
                </mxCell>
                <mxCell id="t3qOj-esfIgr-Tjjv3id-11" value="total_distance: int" style="text;strokeColor=none;fillColor=none;align=left;verticalAlign=top;spacingLeft=4;spacingRight=4;overflow=hidden;rotatable=0;points=[[0,0.5],[1,0.5]];portConstraint=eastwest;sketch=0;hachureGap=4;fontFamily=Helvetica;fontSize=20;" vertex="1" parent="t3qOj-esfIgr-Tjjv3id-7">
                    <mxGeometry y="104" width="210" height="26" as="geometry"/>
                </mxCell>
                <mxCell id="t3qOj-esfIgr-Tjjv3id-12" value="source: varchar" style="text;strokeColor=none;fillColor=none;align=left;verticalAlign=top;spacingLeft=4;spacingRight=4;overflow=hidden;rotatable=0;points=[[0,0.5],[1,0.5]];portConstraint=eastwest;sketch=0;hachureGap=4;fontFamily=Helvetica;fontSize=20;" vertex="1" parent="t3qOj-esfIgr-Tjjv3id-7">
                    <mxGeometry y="130" width="210" height="26" as="geometry"/>
                </mxCell>
                <mxCell id="t3qOj-esfIgr-Tjjv3id-13" value="fk_licence_plate: int" style="text;strokeColor=none;fillColor=none;align=left;verticalAlign=top;spacingLeft=4;spacingRight=4;overflow=hidden;rotatable=0;points=[[0,0.5],[1,0.5]];portConstraint=eastwest;sketch=0;hachureGap=4;fontFamily=Helvetica;fontSize=20;" vertex="1" parent="t3qOj-esfIgr-Tjjv3id-7">
                    <mxGeometry y="156" width="210" height="26" as="geometry"/>
                </mxCell>
                <mxCell id="t3qOj-esfIgr-Tjjv3id-14" style="edgeStyle=orthogonalEdgeStyle;rounded=0;sketch=0;hachureGap=4;orthogonalLoop=1;jettySize=auto;html=1;exitX=1;exitY=0.5;exitDx=0;exitDy=0;entryX=0;entryY=0.5;entryDx=0;entryDy=0;fontFamily=Helvetica;fontSize=20;endArrow=ERone;endFill=0;startSize=14;endSize=14;sourcePerimeterSpacing=8;targetPerimeterSpacing=8;startArrow=ERmany;startFill=0;" edge="1" parent="t3qOj-esfIgr-Tjjv3id-1" source="t3qOj-esfIgr-Tjjv3id-3" target="t3qOj-esfIgr-Tjjv3id-13">
                    <mxGeometry relative="1" as="geometry"/>
                </mxCell>
                <mxCell id="t3qOj-esfIgr-Tjjv3id-15" value="bus station" style="swimlane;fontStyle=0;childLayout=stackLayout;horizontal=1;startSize=26;fillColor=none;horizontalStack=0;resizeParent=1;resizeParentMax=0;resizeLast=0;collapsible=1;marginBottom=0;sketch=0;hachureGap=4;fontFamily=Helvetica;fontSize=20;" vertex="1" parent="t3qOj-esfIgr-Tjjv3id-1">
                    <mxGeometry x="730" y="80" width="210" height="156" as="geometry"/>
                </mxCell>
                <mxCell id="t3qOj-esfIgr-Tjjv3id-17" value="adress: varchar" style="text;strokeColor=none;fillColor=none;align=left;verticalAlign=top;spacingLeft=4;spacingRight=4;overflow=hidden;rotatable=0;points=[[0,0.5],[1,0.5]];portConstraint=eastwest;sketch=0;hachureGap=4;fontFamily=Helvetica;fontSize=20;" vertex="1" parent="t3qOj-esfIgr-Tjjv3id-15">
                    <mxGeometry y="26" width="210" height="26" as="geometry"/>
                </mxCell>
                <mxCell id="t3qOj-esfIgr-Tjjv3id-18" value="telephone_number: int" style="text;strokeColor=none;fillColor=none;align=left;verticalAlign=top;spacingLeft=4;spacingRight=4;overflow=hidden;rotatable=0;points=[[0,0.5],[1,0.5]];portConstraint=eastwest;sketch=0;hachureGap=4;fontFamily=Helvetica;fontSize=20;" vertex="1" parent="t3qOj-esfIgr-Tjjv3id-15">
                    <mxGeometry y="52" width="210" height="26" as="geometry"/>
                </mxCell>
                <mxCell id="t3qOj-esfIgr-Tjjv3id-19" value="order_num: int" style="text;strokeColor=none;fillColor=none;align=left;verticalAlign=top;spacingLeft=4;spacingRight=4;overflow=hidden;rotatable=0;points=[[0,0.5],[1,0.5]];portConstraint=eastwest;sketch=0;hachureGap=4;fontFamily=Helvetica;fontSize=20;" vertex="1" parent="t3qOj-esfIgr-Tjjv3id-15">
                    <mxGeometry y="78" width="210" height="26" as="geometry"/>
                </mxCell>
                <mxCell id="t3qOj-esfIgr-Tjjv3id-16" value="fk_city_id: int" style="text;strokeColor=none;fillColor=none;align=left;verticalAlign=top;spacingLeft=4;spacingRight=4;overflow=hidden;rotatable=0;points=[[0,0.5],[1,0.5]];portConstraint=eastwest;sketch=0;hachureGap=4;fontFamily=Helvetica;fontSize=20;" vertex="1" parent="t3qOj-esfIgr-Tjjv3id-15">
                    <mxGeometry y="104" width="210" height="26" as="geometry"/>
                </mxCell>
                <mxCell id="t3qOj-esfIgr-Tjjv3id-20" value="fk_route_id: int" style="text;strokeColor=none;fillColor=none;align=left;verticalAlign=top;spacingLeft=4;spacingRight=4;overflow=hidden;rotatable=0;points=[[0,0.5],[1,0.5]];portConstraint=eastwest;sketch=0;hachureGap=4;fontFamily=Helvetica;fontSize=20;" vertex="1" parent="t3qOj-esfIgr-Tjjv3id-15">
                    <mxGeometry y="130" width="210" height="26" as="geometry"/>
                </mxCell>
                <mxCell id="t3qOj-esfIgr-Tjjv3id-21" style="edgeStyle=orthogonalEdgeStyle;rounded=0;sketch=0;hachureGap=4;orthogonalLoop=1;jettySize=auto;html=1;exitX=1;exitY=0.5;exitDx=0;exitDy=0;fontFamily=Helvetica;fontSize=20;startArrow=ERone;startFill=0;endArrow=ERmany;endFill=0;startSize=14;endSize=14;sourcePerimeterSpacing=8;targetPerimeterSpacing=8;entryX=0;entryY=0.5;entryDx=0;entryDy=0;" edge="1" parent="t3qOj-esfIgr-Tjjv3id-1" source="t3qOj-esfIgr-Tjjv3id-8" target="t3qOj-esfIgr-Tjjv3id-20">
                    <mxGeometry relative="1" as="geometry">
                        <mxPoint x="607" y="240.0588235294117" as="targetPoint"/>
                    </mxGeometry>
                </mxCell>
                <mxCell id="t3qOj-esfIgr-Tjjv3id-22" value="city" style="swimlane;fontStyle=0;childLayout=stackLayout;horizontal=1;startSize=26;fillColor=none;horizontalStack=0;resizeParent=1;resizeParentMax=0;resizeLast=0;collapsible=1;marginBottom=0;sketch=0;hachureGap=4;fontFamily=Helvetica;fontSize=20;" vertex="1" parent="t3qOj-esfIgr-Tjjv3id-1">
                    <mxGeometry x="720" y="300" width="210" height="156" as="geometry"/>
                </mxCell>
                <mxCell id="t3qOj-esfIgr-Tjjv3id-23" value="city_id: int" style="text;strokeColor=none;fillColor=none;align=left;verticalAlign=top;spacingLeft=4;spacingRight=4;overflow=hidden;rotatable=0;points=[[0,0.5],[1,0.5]];portConstraint=eastwest;sketch=0;hachureGap=4;fontFamily=Helvetica;fontSize=20;" vertex="1" parent="t3qOj-esfIgr-Tjjv3id-22">
                    <mxGeometry y="26" width="210" height="26" as="geometry"/>
                </mxCell>
                <mxCell id="t3qOj-esfIgr-Tjjv3id-28" value="city_name: varchar" style="text;strokeColor=none;fillColor=none;align=left;verticalAlign=top;spacingLeft=4;spacingRight=4;overflow=hidden;rotatable=0;points=[[0,0.5],[1,0.5]];portConstraint=eastwest;sketch=0;hachureGap=4;fontFamily=Helvetica;fontSize=20;" vertex="1" parent="t3qOj-esfIgr-Tjjv3id-22">
                    <mxGeometry y="52" width="210" height="26" as="geometry"/>
                </mxCell>
                <mxCell id="t3qOj-esfIgr-Tjjv3id-24" value="adress: varchar" style="text;strokeColor=none;fillColor=none;align=left;verticalAlign=top;spacingLeft=4;spacingRight=4;overflow=hidden;rotatable=0;points=[[0,0.5],[1,0.5]];portConstraint=eastwest;sketch=0;hachureGap=4;fontFamily=Helvetica;fontSize=20;" vertex="1" parent="t3qOj-esfIgr-Tjjv3id-22">
                    <mxGeometry y="78" width="210" height="26" as="geometry"/>
                </mxCell>
                <mxCell id="t3qOj-esfIgr-Tjjv3id-25" value="post_code: int" style="text;strokeColor=none;fillColor=none;align=left;verticalAlign=top;spacingLeft=4;spacingRight=4;overflow=hidden;rotatable=0;points=[[0,0.5],[1,0.5]];portConstraint=eastwest;sketch=0;hachureGap=4;fontFamily=Helvetica;fontSize=20;" vertex="1" parent="t3qOj-esfIgr-Tjjv3id-22">
                    <mxGeometry y="104" width="210" height="26" as="geometry"/>
                </mxCell>
                <mxCell id="t3qOj-esfIgr-Tjjv3id-27" value="fk_route_id: int" style="text;strokeColor=none;fillColor=none;align=left;verticalAlign=top;spacingLeft=4;spacingRight=4;overflow=hidden;rotatable=0;points=[[0,0.5],[1,0.5]];portConstraint=eastwest;sketch=0;hachureGap=4;fontFamily=Helvetica;fontSize=20;" vertex="1" parent="t3qOj-esfIgr-Tjjv3id-22">
                    <mxGeometry y="130" width="210" height="26" as="geometry"/>
                </mxCell>
                <mxCell id="t3qOj-esfIgr-Tjjv3id-29" style="edgeStyle=orthogonalEdgeStyle;rounded=0;sketch=0;hachureGap=4;orthogonalLoop=1;jettySize=auto;html=1;exitX=0;exitY=0.5;exitDx=0;exitDy=0;fontFamily=Helvetica;fontSize=20;startArrow=ERmany;startFill=0;endArrow=ERone;endFill=0;startSize=14;endSize=14;sourcePerimeterSpacing=8;targetPerimeterSpacing=8;entryX=0;entryY=0.5;entryDx=0;entryDy=0;" edge="1" parent="t3qOj-esfIgr-Tjjv3id-1" source="t3qOj-esfIgr-Tjjv3id-16" target="t3qOj-esfIgr-Tjjv3id-23">
                    <mxGeometry relative="1" as="geometry">
                        <mxPoint x="610" y="450" as="targetPoint"/>
                    </mxGeometry>
                </mxCell>
            </root>
        </mxGraphModel>
    </diagram>
</mxfile>